# xmcd CD database file
#
# Track frame offsets:
#	150
#	21740
#	35760
#	50805
#	65820
#	79190
#	91157
#	105267
#	117335
#	130487
#	143995
#	159130
#	177402
#	193767
#	219155
#	246197
#	264505
#	293687
#	308065
#
# Disc length: 4396 seconds
#
# Revision: 0
# Processed by: cddbd v1.5.1PL0 Copyright (c) Steve Scherf et al.
# Submitted via: CDex 1.60beta1
#
DISCID=19112a13
DTITLE=Stan Kenton and His Orchestra - Concepts Era -- Live [CD1]
DYEAR=0
DGENRE=Jazz
TTITLE0=The Opener
TTITLE1=Works
TTITLE2=You Go To My Head
TTITLE3=Swing House
TTITLE4=23° N 82° W
TTITLE5=Fascinating Rhythm
TTITLE6=All About Ronnie
TTITLE7=Bags
TTITLE8=Why Do I Love You
TTITLE9=Walkin' Shoes
TTITLE10=I Got It Bad
TTITLE11=Boop-Boop-Be-Doop
TTITLE12=Talk Of The Town
TTITLE13=I've Got You Under My Skin
TTITLE14=S'Wonderful
TTITLE15=Carl
TTITLE16=Stella By Starlight
TTITLE17=Blues Before And After
TTITLE18=Intermission Riff
EXTD=YEAR: 0
EXTT0=
EXTT1=
EXTT2=
EXTT3=
EXTT4=
EXTT5=
EXTT6=
EXTT7=
EXTT8=
EXTT9=
EXTT10=
EXTT11=
EXTT12=
EXTT13=
EXTT14=
EXTT15=
EXTT16=
EXTT17=
EXTT18=
PLAYORDER=
